<svg width="119" height="40" viewBox="0 0 119 40" fill="none" xmlns="http://www.w3.org/2000/svg">
<path fill-rule="evenodd" clip-rule="evenodd" d="M7.5 10C7.5 8.61929 8.61929 7.5 10 7.5H13.75C15.1307 7.5 16.25 8.61929 16.25 10V30C16.25 31.3807 15.1307 32.5 13.75 32.5H10C8.61929 32.5 7.5 31.3807 7.5 30V10ZM13.75 10H10V30H13.75V10Z" fill="#FF830A"/>
<path fill-rule="evenodd" clip-rule="evenodd" d="M23.75 10C23.75 8.61929 24.8693 7.5 26.25 7.5H30C31.3807 7.5 32.5 8.61929 32.5 10V30C32.5 31.3807 31.3807 32.5 30 32.5H26.25C24.8693 32.5 23.75 31.3807 23.75 30V10ZM30 10H26.25V30H30V10Z" fill="#FF830A"/>
<path fill-rule="evenodd" clip-rule="evenodd" d="M30 12.5C30 11.8096 30.5596 11.25 31.25 11.25H35C35.663 11.25 36.2989 11.5134 36.7678 11.9822C37.2366 12.4511 37.5 13.087 37.5 13.75V26.25C37.5 26.913 37.2366 27.5489 36.7678 28.0178C36.2989 28.4866 35.663 28.75 35 28.75H31.25C30.5596 28.75 30 28.1904 30 27.5C30 26.8096 30.5596 26.25 31.25 26.25H35L35 13.75L31.25 13.75C30.5596 13.75 30 13.1904 30 12.5Z" fill="#FF830A"/>
<path fill-rule="evenodd" clip-rule="evenodd" d="M3.23223 11.9822C3.70107 11.5134 4.33696 11.25 5 11.25H8.75C9.44036 11.25 10 11.8096 10 12.5C10 13.1904 9.44036 13.75 8.75 13.75L5 13.75V26.25H8.75C9.44036 26.25 10 26.8096 10 27.5C10 28.1904 9.44036 28.75 8.75 28.75H5C4.33696 28.75 3.70108 28.4866 3.23223 28.0178C2.76339 27.5489 2.5 26.913 2.5 26.25V13.75C2.5 13.087 2.76339 12.4511 3.23223 11.9822Z" fill="#FF830A"/>
<path fill-rule="evenodd" clip-rule="evenodd" d="M13.75 20C13.75 19.3096 14.3096 18.75 15 18.75H25C25.6904 18.75 26.25 19.3096 26.25 20C26.25 20.6904 25.6904 21.25 25 21.25H15C14.3096 21.25 13.75 20.6904 13.75 20Z" fill="#FF830A"/>
<path fill-rule="evenodd" clip-rule="evenodd" d="M35 20C35 19.3096 35.5596 18.75 36.25 18.75H38.75C39.4404 18.75 40 19.3096 40 20C40 20.6904 39.4404 21.25 38.75 21.25H36.25C35.5596 21.25 35 20.6904 35 20Z" fill="#FF830A"/>
<path fill-rule="evenodd" clip-rule="evenodd" d="M0 20C0 19.3096 0.559644 18.75 1.25 18.75H3.75C4.44036 18.75 5 19.3096 5 20C5 20.6904 4.44036 21.25 3.75 21.25H1.25C0.559644 21.25 0 20.6904 0 20Z" fill="#FF830A"/>
<path d="M65.0332 9.59375H69.1211V22.7461C69.1211 24.2773 68.793 25.5671 68.1367 26.6152C67.4896 27.6634 66.5918 28.4518 65.4434 28.9805C64.304 29.5091 62.9915 29.7734 61.5059 29.7734C60.0202 29.7734 58.6986 29.5091 57.541 28.9805C56.3926 28.4518 55.4902 27.6634 54.834 26.6152C54.1868 25.5671 53.8633 24.2773 53.8633 22.7461V9.59375H57.9648V22.7461C57.9648 23.6393 58.1061 24.3685 58.3887 24.9336C58.6712 25.4987 59.0768 25.9134 59.6055 26.1777C60.1432 26.4421 60.7767 26.5742 61.5059 26.5742C62.2533 26.5742 62.8867 26.4421 63.4062 26.1777C63.9349 25.9134 64.3359 25.4987 64.6094 24.9336C64.8919 24.3685 65.0332 23.6393 65.0332 22.7461V9.59375ZM76.1895 17.5508V35.1875H72.252V14.707H75.9023L76.1895 17.5508ZM85.5547 21.9395V22.2266C85.5547 23.3021 85.4271 24.3001 85.1719 25.2207C84.9258 26.1413 84.5612 26.9434 84.0781 27.627C83.5951 28.3014 82.9935 28.8301 82.2734 29.2129C81.5625 29.5866 80.7422 29.7734 79.8125 29.7734C78.9102 29.7734 78.1263 29.5911 77.4609 29.2266C76.7956 28.862 76.235 28.3516 75.7793 27.6953C75.3327 27.0299 74.9727 26.2598 74.6992 25.3848C74.4258 24.5098 74.2161 23.571 74.0703 22.5684V21.8164C74.2161 20.7409 74.4258 19.7565 74.6992 18.8633C74.9727 17.9609 75.3327 17.1816 75.7793 16.5254C76.235 15.86 76.791 15.3451 77.4473 14.9805C78.1126 14.6159 78.8919 14.4336 79.7852 14.4336C80.724 14.4336 81.5488 14.6113 82.2598 14.9668C82.9798 15.3223 83.5814 15.8327 84.0645 16.498C84.5566 17.1634 84.9258 17.9564 85.1719 18.877C85.4271 19.7975 85.5547 20.8184 85.5547 21.9395ZM81.6035 22.2266V21.9395C81.6035 21.3105 81.5488 20.7318 81.4395 20.2031C81.3392 19.6654 81.1751 19.196 80.9473 18.7949C80.7285 18.3939 80.4368 18.084 80.0723 17.8652C79.7168 17.6374 79.2839 17.5234 78.7734 17.5234C78.2357 17.5234 77.7754 17.61 77.3926 17.7832C77.0189 17.9564 76.7135 18.207 76.4766 18.5352C76.2396 18.8633 76.0618 19.2552 75.9434 19.7109C75.8249 20.1667 75.752 20.6816 75.7246 21.2559V23.1562C75.7702 23.8307 75.8978 24.4368 76.1074 24.9746C76.3171 25.5033 76.6406 25.9225 77.0781 26.2324C77.5156 26.5423 78.0898 26.6973 78.8008 26.6973C79.3203 26.6973 79.7578 26.5833 80.1133 26.3555C80.4688 26.1185 80.7559 25.7949 80.9746 25.3848C81.2025 24.9746 81.362 24.5007 81.4531 23.9629C81.5534 23.4251 81.6035 22.8464 81.6035 22.2266ZM92.3496 9.59375V29.5H88.248V9.59375H92.3496ZM100.279 18.0977V21.2969H91.2285V18.0977H100.279ZM101.236 9.59375V12.8066H91.2285V9.59375H101.236ZM107.525 14.707V29.5H103.574V14.707H107.525ZM103.328 10.8516C103.328 10.2773 103.529 9.80339 103.93 9.42969C104.331 9.05599 104.868 8.86914 105.543 8.86914C106.208 8.86914 106.742 9.05599 107.143 9.42969C107.553 9.80339 107.758 10.2773 107.758 10.8516C107.758 11.4258 107.553 11.8997 107.143 12.2734C106.742 12.6471 106.208 12.834 105.543 12.834C104.868 12.834 104.331 12.6471 103.93 12.2734C103.529 11.8997 103.328 11.4258 103.328 10.8516ZM118.025 14.707V17.4961H109.412V14.707H118.025ZM111.545 11.0566H115.482V25.043C115.482 25.4714 115.537 25.7995 115.646 26.0273C115.765 26.2552 115.938 26.4147 116.166 26.5059C116.394 26.5879 116.681 26.6289 117.027 26.6289C117.273 26.6289 117.492 26.6198 117.684 26.6016C117.884 26.5742 118.053 26.5469 118.189 26.5195L118.203 29.418C117.866 29.5273 117.501 29.6139 117.109 29.6777C116.717 29.7415 116.285 29.7734 115.811 29.7734C114.945 29.7734 114.188 29.6322 113.541 29.3496C112.903 29.0579 112.411 28.5931 112.064 27.9551C111.718 27.3171 111.545 26.4785 111.545 25.4395V11.0566Z" fill="white"/>
</svg>
